<?xml version="1.0" encoding="UTF-8" standalone="no"?>
<?xml-stylesheet href="style.css" type="text/css"?>
<!DOCTYPE svg PUBLIC "-//W3C//DTD SVG 1.1//EN"
 "http://www.w3.org/Graphics/SVG/1.1/DTD/svg11.dtd">
<!-- Generated by graphviz version 2.43.0 (0)
 -->
<!-- Title: 1.svg Pages: 1 -->
<svg width="338pt" height="237pt"
 viewBox="0.00 0.00 338.00 237.00" xmlns="http://www.w3.org/2000/svg" xmlns:xlink="http://www.w3.org/1999/xlink">
<g id="graph0" class="graph" transform="scale(1 1) rotate(0) translate(4 233)">
<title>1.svg</title>
<polygon fill="white" stroke="transparent" points="-4,4 -4,-233 334,-233 334,4 -4,4"/>
<!-- r0 -->
<g id="node1" class="node">
<title>r0</title>
<polygon fill="none" stroke="black" stroke-dasharray="5,2" points="148.5,-229 125.5,-229 125.5,-211 148.5,-211 148.5,-229"/>
<text text-anchor="middle" x="137" y="-217.8" font-family="serif" font-size="9.00">0</text>
</g>
<!-- v0 -->
<g id="v0_A" class="node">
<title>v0</title>
<ellipse fill="none" stroke="black" cx="264" cy="-127" rx="11" ry="11"/>
<text text-anchor="middle" x="264" y="-124.8" font-family="sans-serif" font-size="9.00">A</text>
</g>
<!-- r0&#45;&gt;v0 -->
<g id="edge1" class="edge">
<title>r0&#45;&gt;v0</title>
<path fill="none" stroke="black" d="M148.27,-210.92C171.82,-194.05 226.1,-155.16 251.04,-137.29"/>
<polygon fill="black" stroke="black" points="255.34,-134.2 252.59,-138.94 253.31,-135.66 251.28,-137.12 251.28,-137.12 251.28,-137.12 253.31,-135.66 249.97,-135.29 255.34,-134.2 255.34,-134.2"/>
</g>
<!-- v3 -->
<g id="v3_A" class="node">
<title>v3</title>
<ellipse fill="none" stroke="black" cx="137" cy="-127" rx="11" ry="11"/>
<text text-anchor="middle" x="137" y="-124.8" font-family="sans-serif" font-size="9.00">A</text>
</g>
<!-- r0&#45;&gt;v3 -->
<g id="edge2" class="edge">
<title>r0&#45;&gt;v3</title>
<path fill="none" stroke="black" d="M137,-210.92C137,-195.74 137,-162.7 137,-143.22"/>
<polygon fill="black" stroke="black" points="137,-138.11 139.25,-143.11 137,-140.61 137,-143.11 137,-143.11 137,-143.11 137,-140.61 134.75,-143.11 137,-138.11 137,-138.11"/>
</g>
<!-- v4 -->
<g id="v4_Mail" class="node">
<title>v4</title>
<ellipse fill="none" stroke="black" cx="66" cy="-69" rx="21.5" ry="11"/>
<text text-anchor="middle" x="66" y="-66.8" font-family="sans-serif" font-size="9.00">Mail</text>
</g>
<!-- r0&#45;&gt;v4 -->
<g id="edge3" class="edge">
<title>r0&#45;&gt;v4</title>
<path fill="none" stroke="black" d="M133.18,-210.99C121.75,-187.01 87.69,-115.52 72.94,-84.56"/>
<polygon fill="black" stroke="black" points="70.74,-79.96 74.93,-83.5 71.82,-82.21 72.9,-84.47 72.9,-84.47 72.9,-84.47 71.82,-82.21 70.86,-85.44 70.74,-79.96 70.74,-79.96"/>
</g>
<!-- oa -->
<g id="node2" class="node">
<title>oa</title>
<text text-anchor="middle" x="184" y="-217.8" font-family="serif" font-size="9.00">a</text>
</g>
<!-- e0 -->
<g id="node6" class="node">
<title>e0</title>
</g>
<!-- oa&#45;&gt;e0 -->
<g id="edge9" class="edge">
<title>oa&#45;&gt;e0</title>
<path fill="none" stroke="green" d="M184,-210.93C184,-198.23 184,-175 184,-175"/>
</g>
<!-- ob -->
<g id="node3" class="node">
<title>ob</title>
<text text-anchor="middle" x="264" y="-217.8" font-family="serif" font-size="9.00">b</text>
</g>
<!-- ov_a -->
<g id="node4" class="node">
<title>ov_a</title>
<text text-anchor="middle" x="16" y="-217.8" font-family="serif" font-size="9.00">v_a</text>
</g>
<!-- ov_b -->
<g id="node5" class="node">
<title>ov_b</title>
<text text-anchor="middle" x="314" y="-217.8" font-family="serif" font-size="9.00">v_b</text>
</g>
<!-- v2 -->
<g id="v2_M" class="node">
<title>v2</title>
<ellipse fill="none" stroke="black" cx="268" cy="-11" rx="11" ry="11"/>
<text text-anchor="middle" x="268" y="-8.8" font-family="sans-serif" font-size="9.00">M</text>
</g>
<!-- e0&#45;&gt;v2 -->
<g id="edge10" class="edge">
<title>e0&#45;&gt;v2</title>
<path fill="none" stroke="green" d="M184,-174C184,-174 213.78,-108.58 241,-58 248.11,-44.79 257.03,-29.88 262.63,-20.71"/>
</g>
<!-- e0&#45;&gt;v3 -->
<g id="edge11" class="edge">
<title>e0&#45;&gt;v3</title>
<path fill="none" stroke="green" d="M184,-174C184,-174 158.11,-148.66 144.76,-135.6"/>
</g>
<!-- v5 -->
<g id="v5_M" class="node">
<title>v5</title>
<ellipse fill="none" stroke="black" cx="66" cy="-11" rx="11" ry="11"/>
<text text-anchor="middle" x="66" y="-8.8" font-family="sans-serif" font-size="9.00">M</text>
</g>
<!-- e0&#45;&gt;v5 -->
<g id="edge12" class="edge">
<title>e0&#45;&gt;v5</title>
<path fill="none" stroke="green" d="M184,-174C184,-174 196.58,-99.62 165,-58 153.49,-42.83 99.02,-23.12 76.15,-15.36"/>
</g>
<!-- v0&#45;&gt;ob -->
<g id="edge13" class="edge">
<title>v0&#45;&gt;ob</title>
<path fill="none" stroke="green" d="M264,-138.11C264,-156.33 264,-194.31 264,-210.92"/>
</g>
<!-- v1 -->
<g id="v1_Snd" class="node">
<title>v1</title>
<ellipse fill="none" stroke="black" cx="268" cy="-69" rx="18" ry="11"/>
<text text-anchor="middle" x="268" y="-66.8" font-family="sans-serif" font-size="9.00">Snd</text>
</g>
<!-- v0&#45;&gt;v1 -->
<g id="edge4" class="edge">
<title>v0&#45;&gt;v1</title>
<path fill="none" stroke="black" d="M264.72,-115.99C265.32,-107.49 266.2,-95.17 266.9,-85.42"/>
<polygon fill="black" stroke="black" points="267.26,-80.3 269.15,-85.45 267.09,-82.8 266.91,-85.29 266.91,-85.29 266.91,-85.29 267.09,-82.8 264.66,-85.13 267.26,-80.3 267.26,-80.3"/>
</g>
<!-- v1&#45;&gt;v2 -->
<g id="edge5" class="edge">
<title>v1&#45;&gt;v2</title>
<path fill="none" stroke="black" d="M268,-57.99C268,-49.49 268,-37.17 268,-27.42"/>
<polygon fill="black" stroke="black" points="268,-22.3 270.25,-27.3 268,-24.8 268,-27.3 268,-27.3 268,-27.3 268,-24.8 265.75,-27.3 268,-22.3 268,-22.3"/>
</g>
<!-- v2&#45;&gt;ov_b -->
<g id="edge15" class="edge">
<title>v2&#45;&gt;ov_b</title>
<path fill="none" stroke="green" d="M274.32,-20.3C280.68,-29.14 290.22,-43.78 295,-58 313.82,-114.03 314.55,-186.47 314.2,-210.7"/>
</g>
<!-- v6 -->
<g id="v6_Ready" class="node">
<title>v6</title>
<ellipse fill="none" stroke="black" cx="131" cy="-69" rx="25" ry="11"/>
<text text-anchor="middle" x="131" y="-66.8" font-family="sans-serif" font-size="9.00">Ready</text>
</g>
<!-- v3&#45;&gt;v6 -->
<g id="edge6" class="edge">
<title>v3&#45;&gt;v6</title>
<path fill="none" stroke="black" d="M135.93,-115.99C135.02,-107.49 133.7,-95.17 132.65,-85.42"/>
<polygon fill="black" stroke="black" points="132.1,-80.3 134.87,-85.04 132.37,-82.79 132.64,-85.28 132.64,-85.28 132.64,-85.28 132.37,-82.79 130.4,-85.52 132.1,-80.3 132.1,-80.3"/>
</g>
<!-- v4&#45;&gt;v5 -->
<g id="edge7" class="edge">
<title>v4&#45;&gt;v5</title>
<path fill="none" stroke="black" d="M66,-57.99C66,-49.49 66,-37.17 66,-27.42"/>
<polygon fill="black" stroke="black" points="66,-22.3 68.25,-27.3 66,-24.8 66,-27.3 66,-27.3 66,-27.3 66,-24.8 63.75,-27.3 66,-22.3 66,-22.3"/>
</g>
<!-- v5&#45;&gt;ov_a -->
<g id="edge14" class="edge">
<title>v5&#45;&gt;ov_a</title>
<path fill="none" stroke="green" d="M59,-19.82C51.67,-28.48 40.49,-43.19 35,-58 14.34,-113.68 14.83,-186.95 15.64,-210.99"/>
</g>
<!-- v7 -->
<g id="v7_Fun" class="node">
<title>v7</title>
<ellipse fill="none" stroke="black" cx="131" cy="-11" rx="18" ry="11"/>
<text text-anchor="middle" x="131" y="-8.8" font-family="sans-serif" font-size="9.00">Fun</text>
</g>
<!-- v6&#45;&gt;v7 -->
<g id="edge8" class="edge">
<title>v6&#45;&gt;v7</title>
<path fill="none" stroke="black" d="M131,-57.99C131,-49.49 131,-37.17 131,-27.42"/>
<polygon fill="black" stroke="black" points="131,-22.3 133.25,-27.3 131,-24.8 131,-27.3 131,-27.3 131,-27.3 131,-24.8 128.75,-27.3 131,-22.3 131,-22.3"/>
</g>
</g>
</svg>
