<?xml version="1.0" encoding="UTF-8" standalone="no"?>
<?xml-stylesheet href="style.css" type="text/css"?>
<!DOCTYPE svg PUBLIC "-//W3C//DTD SVG 1.1//EN"
 "http://www.w3.org/Graphics/SVG/1.1/DTD/svg11.dtd">
<!-- Generated by graphviz version 2.43.0 (0)
 -->
<!-- Title: 2.svg Pages: 1 -->
<svg width="225pt" height="200pt"
 viewBox="0.00 0.00 224.50 200.00" xmlns="http://www.w3.org/2000/svg" xmlns:xlink="http://www.w3.org/1999/xlink">
<g id="graph0" class="graph" transform="scale(1 1) rotate(0) translate(4 196)">
<title>2.svg</title>
<polygon fill="white" stroke="transparent" points="-4,4 -4,-196 220.5,-196 220.5,4 -4,4"/>
<!-- r0 -->
<g id="node1" class="node">
<title>r0</title>
<polygon fill="none" stroke="black" stroke-dasharray="5,2" points="160.5,-192 137.5,-192 137.5,-174 160.5,-174 160.5,-192"/>
<text text-anchor="middle" x="149" y="-180.8" font-family="serif" font-size="9.00">0</text>
</g>
<!-- v0 -->
<g id="v0_A" class="node">
<title>v0</title>
<ellipse fill="none" stroke="black" cx="65" cy="-127" rx="11" ry="11"/>
<text text-anchor="middle" x="65" y="-124.8" font-family="sans-serif" font-size="9.00">A</text>
</g>
<!-- r0&#45;&gt;v0 -->
<g id="edge1" class="edge">
<title>r0&#45;&gt;v0</title>
<path fill="none" stroke="black" d="M137.32,-174.49C121.83,-164.53 94.55,-146.99 78.28,-136.54"/>
<polygon fill="black" stroke="black" points="74.01,-133.79 79.43,-134.6 76.11,-135.14 78.22,-136.5 78.22,-136.5 78.22,-136.5 76.11,-135.14 77,-138.39 74.01,-133.79 74.01,-133.79"/>
</g>
<!-- v3 -->
<g id="v3_A" class="node">
<title>v3</title>
<ellipse fill="none" stroke="black" cx="147" cy="-69" rx="11" ry="11"/>
<text text-anchor="middle" x="147" y="-66.8" font-family="sans-serif" font-size="9.00">A</text>
</g>
<!-- r0&#45;&gt;v3 -->
<g id="edge2" class="edge">
<title>r0&#45;&gt;v3</title>
<path fill="none" stroke="black" d="M148.86,-173.95C148.52,-155.39 147.7,-109.36 147.27,-85.27"/>
<polygon fill="black" stroke="black" points="147.18,-80.2 149.52,-85.15 147.23,-82.7 147.27,-85.19 147.27,-85.19 147.27,-85.19 147.23,-82.7 145.02,-85.24 147.18,-80.2 147.18,-80.2"/>
</g>
<!-- v4 -->
<g id="v4_Mail" class="node">
<title>v4</title>
<ellipse fill="none" stroke="black" cx="195" cy="-11" rx="21.5" ry="11"/>
<text text-anchor="middle" x="195" y="-8.8" font-family="sans-serif" font-size="9.00">Mail</text>
</g>
<!-- r0&#45;&gt;v4 -->
<g id="edge3" class="edge">
<title>r0&#45;&gt;v4</title>
<path fill="none" stroke="black" d="M151.72,-173.93C154.66,-165.14 159.39,-150.64 163,-138 174.36,-98.26 185.84,-50.89 191.46,-27.15"/>
<polygon fill="black" stroke="black" points="192.63,-22.18 193.67,-27.56 192.06,-24.61 191.48,-27.05 191.48,-27.05 191.48,-27.05 192.06,-24.61 189.29,-26.53 192.63,-22.18 192.63,-22.18"/>
</g>
<!-- oa -->
<g id="node2" class="node">
<title>oa</title>
<text text-anchor="middle" x="108" y="-180.8" font-family="serif" font-size="9.00">a</text>
</g>
<!-- e0 -->
<g id="node6" class="node">
<title>e0</title>
</g>
<!-- oa&#45;&gt;e0 -->
<g id="edge7" class="edge">
<title>oa&#45;&gt;e0</title>
<path fill="none" stroke="green" d="M108,-173.56C108,-158.38 108,-128 108,-128"/>
</g>
<!-- ob -->
<g id="node3" class="node">
<title>ob</title>
<text text-anchor="middle" x="65" y="-180.8" font-family="serif" font-size="9.00">b</text>
</g>
<!-- ov_a -->
<g id="node4" class="node">
<title>ov_a</title>
<text text-anchor="middle" x="195" y="-180.8" font-family="serif" font-size="9.00">v_a</text>
</g>
<!-- ov_b -->
<g id="node5" class="node">
<title>ov_b</title>
<text text-anchor="middle" x="16" y="-180.8" font-family="serif" font-size="9.00">v_b</text>
</g>
<!-- v2 -->
<g id="v2_M" class="node">
<title>v2</title>
<ellipse fill="none" stroke="black" cx="62" cy="-11" rx="11" ry="11"/>
<text text-anchor="middle" x="62" y="-8.8" font-family="sans-serif" font-size="9.00">M</text>
</g>
<!-- e0&#45;&gt;v2 -->
<g id="edge8" class="edge">
<title>e0&#45;&gt;v2</title>
<path fill="none" stroke="green" d="M108,-126C108,-126 101.27,-86.88 89,-58 83.14,-44.19 73.88,-29.44 67.88,-20.47"/>
</g>
<!-- e0&#45;&gt;v3 -->
<g id="edge9" class="edge">
<title>e0&#45;&gt;v3</title>
<path fill="none" stroke="green" d="M108,-126C108,-126 129.94,-94.5 140.91,-78.75"/>
</g>
<!-- v0&#45;&gt;ob -->
<g id="edge10" class="edge">
<title>v0&#45;&gt;ob</title>
<path fill="none" stroke="green" d="M65,-138.03C65,-148.26 65,-163.95 65,-173.56"/>
</g>
<!-- v1 -->
<g id="v1_Snd" class="node">
<title>v1</title>
<ellipse fill="none" stroke="black" cx="62" cy="-69" rx="18" ry="11"/>
<text text-anchor="middle" x="62" y="-66.8" font-family="sans-serif" font-size="9.00">Snd</text>
</g>
<!-- v0&#45;&gt;v1 -->
<g id="edge4" class="edge">
<title>v0&#45;&gt;v1</title>
<path fill="none" stroke="black" d="M64.46,-115.99C64.01,-107.49 63.35,-95.17 62.83,-85.42"/>
<polygon fill="black" stroke="black" points="62.55,-80.3 65.07,-85.18 62.69,-82.8 62.82,-85.3 62.82,-85.3 62.82,-85.3 62.69,-82.8 60.57,-85.42 62.55,-80.3 62.55,-80.3"/>
</g>
<!-- v1&#45;&gt;v2 -->
<g id="edge5" class="edge">
<title>v1&#45;&gt;v2</title>
<path fill="none" stroke="black" d="M62,-57.99C62,-49.49 62,-37.17 62,-27.42"/>
<polygon fill="black" stroke="black" points="62,-22.3 64.25,-27.3 62,-24.8 62,-27.3 62,-27.3 62,-27.3 62,-24.8 59.75,-27.3 62,-22.3 62,-22.3"/>
</g>
<!-- v2&#45;&gt;ov_b -->
<g id="edge11" class="edge">
<title>v2&#45;&gt;ov_b</title>
<path fill="none" stroke="green" d="M55.78,-20.33C49.5,-29.2 40.02,-43.86 35,-58 20.12,-99.86 16.89,-153.75 16.19,-173.91"/>
</g>
<!-- v5 -->
<g id="v5_Fun" class="node">
<title>v5</title>
<ellipse fill="none" stroke="black" cx="137" cy="-11" rx="18" ry="11"/>
<text text-anchor="middle" x="137" y="-8.8" font-family="sans-serif" font-size="9.00">Fun</text>
</g>
<!-- v3&#45;&gt;v5 -->
<g id="edge6" class="edge">
<title>v3&#45;&gt;v5</title>
<path fill="none" stroke="black" d="M145.21,-57.99C143.7,-49.49 141.49,-37.17 139.75,-27.42"/>
<polygon fill="black" stroke="black" points="138.84,-22.3 141.93,-26.83 139.28,-24.76 139.72,-27.23 139.72,-27.23 139.72,-27.23 139.28,-24.76 137.5,-27.62 138.84,-22.3 138.84,-22.3"/>
</g>
</g>
</svg>
