<?xml version="1.0" encoding="UTF-8" standalone="no"?>
<?xml-stylesheet href="style.css" type="text/css"?>
<!DOCTYPE svg PUBLIC "-//W3C//DTD SVG 1.1//EN"
 "http://www.w3.org/Graphics/SVG/1.1/DTD/svg11.dtd">
<!-- Generated by graphviz version 2.43.0 (0)
 -->
<!-- Title: 3.svg Pages: 1 -->
<svg width="276pt" height="142pt"
 viewBox="0.00 0.00 275.50 142.00" xmlns="http://www.w3.org/2000/svg" xmlns:xlink="http://www.w3.org/1999/xlink">
<g id="graph0" class="graph" transform="scale(1 1) rotate(0) translate(4 138)">
<title>3.svg</title>
<polygon fill="white" stroke="transparent" points="-4,4 -4,-138 271.5,-138 271.5,4 -4,4"/>
<!-- r0 -->
<g id="node1" class="node">
<title>r0</title>
<polygon fill="none" stroke="black" stroke-dasharray="5,2" points="64,-134 41,-134 41,-116 64,-116 64,-134"/>
<text text-anchor="middle" x="52.5" y="-122.8" font-family="serif" font-size="9.00">0</text>
</g>
<!-- v0 -->
<g id="v0_A" class="node">
<title>v0</title>
<ellipse fill="none" stroke="black" cx="12.5" cy="-69" rx="11" ry="11"/>
<text text-anchor="middle" x="12.5" y="-66.8" font-family="sans-serif" font-size="9.00">A</text>
</g>
<!-- r0&#45;&gt;v0 -->
<g id="edge1" class="edge">
<title>r0&#45;&gt;v0</title>
<path fill="none" stroke="black" d="M46.25,-115.56C39.64,-106.63 29.13,-92.46 21.6,-82.29"/>
<polygon fill="black" stroke="black" points="18.58,-78.2 23.36,-80.88 20.06,-80.21 21.55,-82.22 21.55,-82.22 21.55,-82.22 20.06,-80.21 19.74,-83.56 18.58,-78.2 18.58,-78.2"/>
</g>
<!-- v3 -->
<g id="v3_Mail" class="node">
<title>v3</title>
<ellipse fill="none" stroke="black" cx="51.5" cy="-11" rx="21.5" ry="11"/>
<text text-anchor="middle" x="51.5" y="-8.8" font-family="sans-serif" font-size="9.00">Mail</text>
</g>
<!-- r0&#45;&gt;v3 -->
<g id="edge2" class="edge">
<title>r0&#45;&gt;v3</title>
<path fill="none" stroke="black" d="M52.43,-115.95C52.26,-97.39 51.85,-51.36 51.64,-27.27"/>
<polygon fill="black" stroke="black" points="51.59,-22.2 53.89,-27.18 51.61,-24.7 51.64,-27.2 51.64,-27.2 51.64,-27.2 51.61,-24.7 49.39,-27.22 51.59,-22.2 51.59,-22.2"/>
</g>
<!-- v4 -->
<g id="v4_A" class="node">
<title>v4</title>
<ellipse fill="none" stroke="black" cx="109.5" cy="-11" rx="11" ry="11"/>
<text text-anchor="middle" x="109.5" y="-8.8" font-family="sans-serif" font-size="9.00">A</text>
</g>
<!-- r0&#45;&gt;v4 -->
<g id="edge3" class="edge">
<title>r0&#45;&gt;v4</title>
<path fill="none" stroke="black" d="M56.6,-115.95C66.23,-97.03 90.38,-49.57 102.43,-25.89"/>
<polygon fill="black" stroke="black" points="104.81,-21.22 104.55,-26.7 103.67,-23.45 102.54,-25.68 102.54,-25.68 102.54,-25.68 103.67,-23.45 100.54,-24.65 104.81,-21.22 104.81,-21.22"/>
</g>
<!-- oa -->
<g id="node2" class="node">
<title>oa</title>
<text text-anchor="middle" x="118.5" y="-122.8" font-family="serif" font-size="9.00">a</text>
</g>
<!-- e0 -->
<g id="node6" class="node">
<title>e0</title>
</g>
<!-- oa&#45;&gt;e0 -->
<g id="edge6" class="edge">
<title>oa&#45;&gt;e0</title>
<path fill="none" stroke="green" d="M118.5,-115.56C118.5,-100.38 118.5,-70 118.5,-70"/>
</g>
<!-- ob -->
<g id="node3" class="node">
<title>ob</title>
<text text-anchor="middle" x="11.5" y="-122.8" font-family="serif" font-size="9.00">b</text>
</g>
<!-- ov_a -->
<g id="node4" class="node">
<title>ov_a</title>
<text text-anchor="middle" x="251.5" y="-122.8" font-family="serif" font-size="9.00">v_a</text>
</g>
<!-- ov_b -->
<g id="node5" class="node">
<title>ov_b</title>
<text text-anchor="middle" x="201.5" y="-122.8" font-family="serif" font-size="9.00">v_b</text>
</g>
<!-- v2 -->
<g id="v2_M" class="node">
<title>v2</title>
<ellipse fill="none" stroke="black" cx="155.5" cy="-11" rx="11" ry="11"/>
<text text-anchor="middle" x="155.5" y="-8.8" font-family="sans-serif" font-size="9.00">M</text>
</g>
<!-- e0&#45;&gt;v2 -->
<g id="edge7" class="edge">
<title>e0&#45;&gt;v2</title>
<path fill="none" stroke="green" d="M118.5,-68C118.5,-68 139.31,-36.5 149.72,-20.75"/>
</g>
<!-- e0&#45;&gt;v4 -->
<g id="edge8" class="edge">
<title>e0&#45;&gt;v4</title>
<path fill="none" stroke="green" d="M118.5,-68C118.5,-68 113.7,-38.12 111.11,-22.01"/>
</g>
<!-- v0&#45;&gt;ob -->
<g id="edge9" class="edge">
<title>v0&#45;&gt;ob</title>
<path fill="none" stroke="green" d="M12.31,-80.03C12.12,-90.26 11.83,-105.95 11.66,-115.56"/>
</g>
<!-- v1 -->
<g id="v1_Snd" class="node">
<title>v1</title>
<ellipse fill="none" stroke="black" cx="155.5" cy="-69" rx="18" ry="11"/>
<text text-anchor="middle" x="155.5" y="-66.8" font-family="sans-serif" font-size="9.00">Snd</text>
</g>
<!-- v0&#45;&gt;v1 -->
<g id="edge4" class="edge">
<title>v0&#45;&gt;v1</title>
<path fill="none" stroke="black" d="M21.7,-75.22C40.24,-86.96 83.33,-110.14 118.5,-98 127.57,-94.87 136.12,-88.49 142.7,-82.52"/>
<polygon fill="black" stroke="black" points="146.54,-78.88 144.46,-83.95 144.73,-80.6 142.91,-82.32 142.91,-82.32 142.91,-82.32 144.73,-80.6 141.36,-80.69 146.54,-78.88 146.54,-78.88"/>
</g>
<!-- v1&#45;&gt;v2 -->
<g id="edge5" class="edge">
<title>v1&#45;&gt;v2</title>
<path fill="none" stroke="black" d="M155.5,-57.99C155.5,-49.49 155.5,-37.17 155.5,-27.42"/>
<polygon fill="black" stroke="black" points="155.5,-22.3 157.75,-27.3 155.5,-24.8 155.5,-27.3 155.5,-27.3 155.5,-27.3 155.5,-24.8 153.25,-27.3 155.5,-22.3 155.5,-22.3"/>
</g>
<!-- v2&#45;&gt;ov_b -->
<g id="edge10" class="edge">
<title>v2&#45;&gt;ov_b</title>
<path fill="none" stroke="green" d="M161.35,-20.48C167.34,-29.46 176.58,-44.22 182.5,-58 191.06,-77.94 197.05,-102.89 199.8,-115.64"/>
</g>
</g>
</svg>
