<?xml version="1.0" encoding="UTF-8" standalone="no"?>
<?xml-stylesheet href="style_sbrs.css" type="text/css"?>
<!DOCTYPE svg PUBLIC "-//W3C//DTD SVG 1.1//EN"
 "http://www.w3.org/Graphics/SVG/1.1/DTD/svg11.dtd">
<!-- Generated by graphviz version 2.43.0 (0)
 -->
<!-- Title: out.svg Pages: 1 -->
<svg width="59pt" height="311pt"
 viewBox="0.00 0.00 58.63 311.28" xmlns="http://www.w3.org/2000/svg" xmlns:xlink="http://www.w3.org/1999/xlink">
<g id="graph0" class="graph" transform="scale(1 1) rotate(0) translate(4 307.28)">
<title>out.svg</title>
<polygon fill="white" stroke="transparent" points="-4,4 -4,-307.28 54.63,-307.28 54.63,4 -4,4"/>
<!-- 0 -->
<g id="s0" class="node">
<title>0</title>
<g id="a_s0"><a xlink:href="output/0.svg" xlink:title="0">
<ellipse fill="none" stroke="black" stroke-width="2" cx="22.63" cy="-290.55" rx="21.5" ry="12.96"/>
<text text-anchor="middle" x="22.63" y="-288.35" font-family="monospace" font-size="9.00">0</text>
</a>
</g>
</g>
<!-- 1 -->
<g id="s1" class="node">
<title>1</title>
<g id="a_s1"><a xlink:href="output/1.svg" xlink:title="phi">
<ellipse fill="none" stroke="black" cx="22.63" cy="-221.1" rx="22.76" ry="12.96"/>
<text text-anchor="start" x="14.63" y="-218.9" font-family="monospace" font-size="9.00">phi</text>
</a>
</g>
</g>
<!-- 0&#45;&gt;1 -->
<g id="edge2" class="edge">
<title>0&#45;&gt;1</title>
<path fill="none" stroke="black" d="M22.63,-277.8C22.63,-267.2 22.63,-251.45 22.63,-239.41"/>
<polygon fill="black" stroke="black" points="22.63,-234.16 24.88,-239.16 22.63,-236.66 22.63,-239.16 22.63,-239.16 22.63,-239.16 22.63,-236.66 20.38,-239.16 22.63,-234.16 22.63,-234.16"/>
<text text-anchor="middle" x="29.63" y="-254.22" font-family="monospace" font-size="7.00">snd</text>
</g>
<!-- 2 -->
<g id="s2" class="node">
<title>2</title>
<g id="a_s2"><a xlink:href="output/2.svg" xlink:title="2">
<ellipse fill="none" stroke="black" cx="22.63" cy="-151.64" rx="21.5" ry="12.96"/>
<text text-anchor="middle" x="22.63" y="-149.44" font-family="monospace" font-size="9.00">2</text>
</a>
</g>
</g>
<!-- 1&#45;&gt;2 -->
<g id="edge3" class="edge">
<title>1&#45;&gt;2</title>
<path fill="none" stroke="black" d="M22.63,-208.35C22.63,-197.74 22.63,-182 22.63,-169.95"/>
<polygon fill="black" stroke="black" points="22.63,-164.71 24.88,-169.71 22.63,-167.21 22.63,-169.71 22.63,-169.71 22.63,-169.71 22.63,-167.21 20.38,-169.71 22.63,-164.71 22.63,-164.71"/>
<text text-anchor="middle" x="34.13" y="-184.77" font-family="monospace" font-size="7.00">ready</text>
</g>
<!-- 3 -->
<g id="s3" class="node">
<title>3</title>
<g id="a_s3"><a xlink:href="output/3.svg" xlink:title="3">
<ellipse fill="none" stroke="black" cx="22.63" cy="-82.18" rx="21.5" ry="12.96"/>
<text text-anchor="middle" x="22.63" y="-79.98" font-family="monospace" font-size="9.00">3</text>
</a>
</g>
</g>
<!-- 4 -->
<g id="s4" class="node">
<title>4</title>
<g id="a_s4"><a xlink:href="output/4.svg" xlink:title="phi">
<ellipse fill="none" stroke="black" cx="22.63" cy="-12.73" rx="22.76" ry="12.96"/>
<text text-anchor="start" x="14.63" y="-10.53" font-family="monospace" font-size="9.00">phi</text>
</a>
</g>
</g>
<!-- 3&#45;&gt;4 -->
<g id="edge4" class="edge">
<title>3&#45;&gt;4</title>
<path fill="none" stroke="black" d="M22.63,-69.43C22.63,-58.83 22.63,-43.09 22.63,-31.04"/>
<polygon fill="black" stroke="black" points="22.63,-25.8 24.88,-30.8 22.63,-28.3 22.63,-30.8 22.63,-30.8 22.63,-30.8 22.63,-28.3 20.38,-30.8 22.63,-25.8 22.63,-25.8"/>
<text text-anchor="middle" x="29.63" y="-45.86" font-family="monospace" font-size="7.00">snd</text>
</g>
<!-- 2&#45;&gt;3 -->
<g id="edge1" class="edge">
<title>2&#45;&gt;3</title>
<path fill="none" stroke="black" d="M22.63,-138.89C22.63,-128.28 22.63,-112.54 22.63,-100.5"/>
<polygon fill="black" stroke="black" points="22.63,-95.25 24.88,-100.25 22.63,-97.75 22.63,-100.25 22.63,-100.25 22.63,-100.25 22.63,-97.75 20.38,-100.25 22.63,-95.25 22.63,-95.25"/>
<text text-anchor="middle" x="36.63" y="-115.31" font-family="monospace" font-size="7.00">lambda</text>
</g>
</g>
</svg>
