<?xml version="1.0" encoding="UTF-8" standalone="no"?>
<?xml-stylesheet href="style.css" type="text/css"?>
<!DOCTYPE svg PUBLIC "-//W3C//DTD SVG 1.1//EN"
 "http://www.w3.org/Graphics/SVG/1.1/DTD/svg11.dtd">
<!-- Generated by graphviz version 2.43.0 (0)
 -->
<!-- Title: 0.svg Pages: 1 -->
<svg width="385pt" height="295pt"
 viewBox="0.00 0.00 385.00 295.00" xmlns="http://www.w3.org/2000/svg" xmlns:xlink="http://www.w3.org/1999/xlink">
<g id="graph0" class="graph" transform="scale(1 1) rotate(0) translate(4 291)">
<title>0.svg</title>
<polygon fill="white" stroke="transparent" points="-4,4 -4,-291 381,-291 381,4 -4,4"/>
<!-- r0 -->
<g id="node1" class="node">
<title>r0</title>
<polygon fill="none" stroke="black" stroke-dasharray="5,2" points="165.5,-287 142.5,-287 142.5,-269 165.5,-269 165.5,-287"/>
<text text-anchor="middle" x="154" y="-275.8" font-family="serif" font-size="9.00">0</text>
</g>
<!-- v0 -->
<g id="v0_A" class="node">
<title>v0</title>
<ellipse fill="none" stroke="black" cx="154" cy="-185" rx="11" ry="11"/>
<text text-anchor="middle" x="154" y="-182.8" font-family="sans-serif" font-size="9.00">A</text>
</g>
<!-- r0&#45;&gt;v0 -->
<g id="edge1" class="edge">
<title>r0&#45;&gt;v0</title>
<path fill="none" stroke="black" d="M154,-268.92C154,-253.74 154,-220.7 154,-201.22"/>
<polygon fill="black" stroke="black" points="154,-196.11 156.25,-201.11 154,-198.61 154,-201.11 154,-201.11 154,-201.11 154,-198.61 151.75,-201.11 154,-196.11 154,-196.11"/>
</g>
<!-- v5 -->
<g id="v5_A" class="node">
<title>v5</title>
<ellipse fill="none" stroke="black" cx="300" cy="-127" rx="11" ry="11"/>
<text text-anchor="middle" x="300" y="-124.8" font-family="sans-serif" font-size="9.00">A</text>
</g>
<!-- r0&#45;&gt;v5 -->
<g id="edge2" class="edge">
<title>r0&#45;&gt;v5</title>
<path fill="none" stroke="black" d="M165.09,-268.77C176.7,-260.08 195.38,-245.89 211,-233 230.19,-217.17 236.47,-214.59 253,-196 268.59,-178.46 283.44,-155.59 292.13,-141.35"/>
<polygon fill="black" stroke="black" points="294.84,-136.87 294.18,-142.31 293.55,-139.01 292.25,-141.15 292.25,-141.15 292.25,-141.15 293.55,-139.01 290.33,-139.98 294.84,-136.87 294.84,-136.87"/>
</g>
<!-- v8 -->
<g id="v8_Mail" class="node">
<title>v8</title>
<ellipse fill="none" stroke="black" cx="52" cy="-11" rx="21.5" ry="11"/>
<text text-anchor="middle" x="52" y="-8.8" font-family="sans-serif" font-size="9.00">Mail</text>
</g>
<!-- r0&#45;&gt;v8 -->
<g id="edge3" class="edge">
<title>r0&#45;&gt;v8</title>
<path fill="none" stroke="black" d="M142.14,-272.74C115.65,-262.37 54,-233.18 54,-186 54,-186 54,-186 54,-126 54,-90.6 53.02,-49.02 52.44,-27.18"/>
<polygon fill="black" stroke="black" points="52.3,-22.06 54.68,-27 52.36,-24.56 52.43,-27.06 52.43,-27.06 52.43,-27.06 52.36,-24.56 50.18,-27.12 52.3,-22.06 52.3,-22.06"/>
</g>
<!-- oa -->
<g id="node2" class="node">
<title>oa</title>
<text text-anchor="middle" x="201" y="-275.8" font-family="serif" font-size="9.00">a</text>
</g>
<!-- e0 -->
<g id="node6" class="node">
<title>e0</title>
</g>
<!-- oa&#45;&gt;e0 -->
<g id="edge10" class="edge">
<title>oa&#45;&gt;e0</title>
<path fill="none" stroke="green" d="M201,-268.93C201,-256.23 201,-233 201,-233"/>
</g>
<!-- ob -->
<g id="node3" class="node">
<title>ob</title>
<text text-anchor="middle" x="315" y="-275.8" font-family="serif" font-size="9.00">b</text>
</g>
<!-- ov_a -->
<g id="node4" class="node">
<title>ov_a</title>
<text text-anchor="middle" x="16" y="-275.8" font-family="serif" font-size="9.00">v_a</text>
</g>
<!-- ov_b -->
<g id="node5" class="node">
<title>ov_b</title>
<text text-anchor="middle" x="361" y="-275.8" font-family="serif" font-size="9.00">v_b</text>
</g>
<!-- e0&#45;&gt;v0 -->
<g id="edge11" class="edge">
<title>e0&#45;&gt;v0</title>
<path fill="none" stroke="green" d="M201,-232C201,-232 175.11,-206.66 161.76,-193.6"/>
</g>
<!-- v2 -->
<g id="v2_M" class="node">
<title>v2</title>
<ellipse fill="none" stroke="black" cx="103" cy="-11" rx="11" ry="11"/>
<text text-anchor="middle" x="103" y="-8.8" font-family="sans-serif" font-size="9.00">M</text>
</g>
<!-- e0&#45;&gt;v2 -->
<g id="edge12" class="edge">
<title>e0&#45;&gt;v2</title>
<path fill="none" stroke="green" d="M201,-232C201,-232 224.38,-123.24 182,-58 177.7,-51.38 132.35,-27.26 112.37,-16.84"/>
</g>
<!-- v7 -->
<g id="v7_M" class="node">
<title>v7</title>
<ellipse fill="none" stroke="black" cx="300" cy="-11" rx="11" ry="11"/>
<text text-anchor="middle" x="300" y="-8.8" font-family="sans-serif" font-size="9.00">M</text>
</g>
<!-- e0&#45;&gt;v7 -->
<g id="edge13" class="edge">
<title>e0&#45;&gt;v7</title>
<path fill="none" stroke="green" d="M201,-232C201,-232 212.52,-212.47 220,-196 247.16,-136.18 244.5,-117.2 273,-58 279.51,-44.48 288.59,-29.65 294.38,-20.58"/>
</g>
<!-- v1 -->
<g id="v1_Snd" class="node">
<title>v1</title>
<ellipse fill="none" stroke="black" cx="148" cy="-127" rx="18" ry="11"/>
<text text-anchor="middle" x="148" y="-124.8" font-family="sans-serif" font-size="9.00">Snd</text>
</g>
<!-- v0&#45;&gt;v1 -->
<g id="edge4" class="edge">
<title>v0&#45;&gt;v1</title>
<path fill="none" stroke="black" d="M152.93,-173.99C152.02,-165.49 150.7,-153.17 149.65,-143.42"/>
<polygon fill="black" stroke="black" points="149.1,-138.3 151.87,-143.04 149.37,-140.79 149.64,-143.28 149.64,-143.28 149.64,-143.28 149.37,-140.79 147.4,-143.52 149.1,-138.3 149.1,-138.3"/>
</g>
<!-- v1&#45;&gt;v2 -->
<g id="edge5" class="edge">
<title>v1&#45;&gt;v2</title>
<path fill="none" stroke="black" d="M139.24,-116.96C131.32,-108.24 120.01,-94.28 114,-80 106.79,-62.87 104.28,-41.49 103.42,-27.32"/>
<polygon fill="black" stroke="black" points="103.16,-22.09 105.66,-26.97 103.28,-24.59 103.41,-27.08 103.41,-27.08 103.41,-27.08 103.28,-24.59 101.16,-27.19 103.16,-22.09 103.16,-22.09"/>
</g>
<!-- v3 -->
<g id="v3_Ready" class="node">
<title>v3</title>
<ellipse fill="none" stroke="black" cx="148" cy="-69" rx="25" ry="11"/>
<text text-anchor="middle" x="148" y="-66.8" font-family="sans-serif" font-size="9.00">Ready</text>
</g>
<!-- v1&#45;&gt;v3 -->
<g id="edge6" class="edge">
<title>v1&#45;&gt;v3</title>
<path fill="none" stroke="black" d="M148,-115.99C148,-107.49 148,-95.17 148,-85.42"/>
<polygon fill="black" stroke="black" points="148,-80.3 150.25,-85.3 148,-82.8 148,-85.3 148,-85.3 148,-85.3 148,-82.8 145.75,-85.3 148,-80.3 148,-80.3"/>
</g>
<!-- v2&#45;&gt;ov_a -->
<g id="edge15" class="edge">
<title>v2&#45;&gt;ov_a</title>
<path fill="none" stroke="green" d="M94.02,-17.69C71.79,-32.56 16,-74.96 16,-126 16,-186 16,-186 16,-186 16,-216.65 16,-253.11 16,-268.97"/>
</g>
<!-- v4 -->
<g id="v4_Fun" class="node">
<title>v4</title>
<ellipse fill="none" stroke="black" cx="150" cy="-11" rx="18" ry="11"/>
<text text-anchor="middle" x="150" y="-8.8" font-family="sans-serif" font-size="9.00">Fun</text>
</g>
<!-- v3&#45;&gt;v4 -->
<g id="edge7" class="edge">
<title>v3&#45;&gt;v4</title>
<path fill="none" stroke="black" d="M148.36,-57.99C148.66,-49.49 149.1,-37.17 149.45,-27.42"/>
<polygon fill="black" stroke="black" points="149.63,-22.3 151.7,-27.38 149.54,-24.8 149.45,-27.3 149.45,-27.3 149.45,-27.3 149.54,-24.8 147.2,-27.22 149.63,-22.3 149.63,-22.3"/>
</g>
<!-- v5&#45;&gt;ob -->
<g id="edge14" class="edge">
<title>v5&#45;&gt;ob</title>
<path fill="none" stroke="green" d="M301,-137.96C303.8,-165.74 311.65,-243.72 314.19,-268.99"/>
</g>
<!-- v6 -->
<g id="v6_Snd" class="node">
<title>v6</title>
<ellipse fill="none" stroke="black" cx="300" cy="-69" rx="18" ry="11"/>
<text text-anchor="middle" x="300" y="-66.8" font-family="sans-serif" font-size="9.00">Snd</text>
</g>
<!-- v5&#45;&gt;v6 -->
<g id="edge8" class="edge">
<title>v5&#45;&gt;v6</title>
<path fill="none" stroke="black" d="M300,-115.99C300,-107.49 300,-95.17 300,-85.42"/>
<polygon fill="black" stroke="black" points="300,-80.3 302.25,-85.3 300,-82.8 300,-85.3 300,-85.3 300,-85.3 300,-82.8 297.75,-85.3 300,-80.3 300,-80.3"/>
</g>
<!-- v6&#45;&gt;v7 -->
<g id="edge9" class="edge">
<title>v6&#45;&gt;v7</title>
<path fill="none" stroke="black" d="M300,-57.99C300,-49.49 300,-37.17 300,-27.42"/>
<polygon fill="black" stroke="black" points="300,-22.3 302.25,-27.3 300,-24.8 300,-27.3 300,-27.3 300,-27.3 300,-24.8 297.75,-27.3 300,-22.3 300,-22.3"/>
</g>
<!-- v7&#45;&gt;ov_b -->
<g id="edge16" class="edge">
<title>v7&#45;&gt;ov_b</title>
<path fill="none" stroke="green" d="M307.48,-19.53C323.77,-36.78 361,-81.11 361,-126 361,-186 361,-186 361,-186 361,-216.65 361,-253.11 361,-268.97"/>
</g>
</g>
</svg>
