<?xml version="1.0" encoding="UTF-8" standalone="no"?>
<?xml-stylesheet href="style.css" type="text/css"?>
<!DOCTYPE svg PUBLIC "-//W3C//DTD SVG 1.1//EN"
 "http://www.w3.org/Graphics/SVG/1.1/DTD/svg11.dtd">
<!-- Generated by graphviz version 2.43.0 (0)
 -->
<!-- Title: 1.svg Pages: 1 -->
<svg width="394pt" height="295pt"
 viewBox="0.00 0.00 393.50 295.00" xmlns="http://www.w3.org/2000/svg" xmlns:xlink="http://www.w3.org/1999/xlink">
<g id="graph0" class="graph" transform="scale(1 1) rotate(0) translate(4 291)">
<title>1.svg</title>
<polygon fill="white" stroke="transparent" points="-4,4 -4,-291 389.5,-291 389.5,4 -4,4"/>
<!-- r0 -->
<g id="node1" class="node">
<title>r0</title>
<polygon fill="none" stroke="black" stroke-dasharray="5,2" points="297.5,-287 274.5,-287 274.5,-269 297.5,-269 297.5,-287"/>
<text text-anchor="middle" x="286" y="-275.8" font-family="serif" font-size="9.00">0</text>
</g>
<!-- v0 -->
<g id="v0_A" class="node">
<title>v0</title>
<ellipse fill="none" stroke="black" cx="152" cy="-185" rx="11" ry="11"/>
<text text-anchor="middle" x="152" y="-182.8" font-family="sans-serif" font-size="9.00">A</text>
</g>
<!-- r0&#45;&gt;v0 -->
<g id="edge1" class="edge">
<title>r0&#45;&gt;v0</title>
<path fill="none" stroke="black" d="M274.11,-268.92C249.04,-251.9 190.95,-212.45 164.97,-194.81"/>
<polygon fill="black" stroke="black" points="160.79,-191.97 166.19,-192.92 162.86,-193.38 164.93,-194.78 164.93,-194.78 164.93,-194.78 162.86,-193.38 163.67,-196.64 160.79,-191.97 160.79,-191.97"/>
</g>
<!-- v5 -->
<g id="v5_A" class="node">
<title>v5</title>
<ellipse fill="none" stroke="black" cx="355" cy="-11" rx="11" ry="11"/>
<text text-anchor="middle" x="355" y="-8.8" font-family="sans-serif" font-size="9.00">A</text>
</g>
<!-- r0&#45;&gt;v5 -->
<g id="edge2" class="edge">
<title>r0&#45;&gt;v5</title>
<path fill="none" stroke="black" d="M294.26,-268.8C308.46,-253.79 336,-220.25 336,-186 336,-186 336,-186 336,-126 336,-89.93 345.37,-48.3 350.95,-26.71"/>
<polygon fill="black" stroke="black" points="352.28,-21.67 353.18,-27.08 351.64,-24.09 351,-26.5 351,-26.5 351,-26.5 351.64,-24.09 348.83,-25.93 352.28,-21.67 352.28,-21.67"/>
</g>
<!-- v6 -->
<g id="v6_Mail" class="node">
<title>v6</title>
<ellipse fill="none" stroke="black" cx="286" cy="-69" rx="21.5" ry="11"/>
<text text-anchor="middle" x="286" y="-66.8" font-family="sans-serif" font-size="9.00">Mail</text>
</g>
<!-- r0&#45;&gt;v6 -->
<g id="edge3" class="edge">
<title>r0&#45;&gt;v6</title>
<path fill="none" stroke="black" d="M286,-268.89C286,-237.84 286,-126.28 286,-85.27"/>
<polygon fill="black" stroke="black" points="286,-80.18 288.25,-85.18 286,-82.68 286,-85.18 286,-85.18 286,-85.18 286,-82.68 283.75,-85.18 286,-80.18 286,-80.18"/>
</g>
<!-- oa -->
<g id="node2" class="node">
<title>oa</title>
<text text-anchor="middle" x="152" y="-275.8" font-family="serif" font-size="9.00">a</text>
</g>
<!-- e0 -->
<g id="node6" class="node">
<title>e0</title>
</g>
<!-- oa&#45;&gt;e0 -->
<g id="edge9" class="edge">
<title>oa&#45;&gt;e0</title>
<path fill="none" stroke="green" d="M152,-268.93C152,-256.23 152,-233 152,-233"/>
</g>
<!-- ob -->
<g id="node3" class="node">
<title>ob</title>
<text text-anchor="middle" x="374" y="-275.8" font-family="serif" font-size="9.00">b</text>
</g>
<!-- ov_a -->
<g id="node4" class="node">
<title>ov_a</title>
<text text-anchor="middle" x="16" y="-275.8" font-family="serif" font-size="9.00">v_a</text>
</g>
<!-- ov_b -->
<g id="node5" class="node">
<title>ov_b</title>
<text text-anchor="middle" x="236" y="-275.8" font-family="serif" font-size="9.00">v_b</text>
</g>
<!-- e0&#45;&gt;v0 -->
<g id="edge10" class="edge">
<title>e0&#45;&gt;v0</title>
<path fill="none" stroke="green" d="M152,-232C152,-232 152,-209.76 152,-196.21"/>
</g>
<!-- v2 -->
<g id="v2_M" class="node">
<title>v2</title>
<ellipse fill="none" stroke="black" cx="54" cy="-11" rx="11" ry="11"/>
<text text-anchor="middle" x="54" y="-8.8" font-family="sans-serif" font-size="9.00">M</text>
</g>
<!-- e0&#45;&gt;v2 -->
<g id="edge11" class="edge">
<title>e0&#45;&gt;v2</title>
<path fill="none" stroke="green" d="M152,-232C152,-232 140.03,-212.45 132,-196 100.2,-130.83 68.33,-49.43 57.71,-21.74"/>
</g>
<!-- v7 -->
<g id="v7_M" class="node">
<title>v7</title>
<ellipse fill="none" stroke="black" cx="236" cy="-11" rx="11" ry="11"/>
<text text-anchor="middle" x="236" y="-8.8" font-family="sans-serif" font-size="9.00">M</text>
</g>
<!-- e0&#45;&gt;v7 -->
<g id="edge12" class="edge">
<title>e0&#45;&gt;v7</title>
<path fill="none" stroke="green" d="M152,-232C152,-232 164.52,-212.71 172,-196 186.93,-162.66 222.23,-54.59 232.89,-21.63"/>
</g>
<!-- v1 -->
<g id="v1_Snd" class="node">
<title>v1</title>
<ellipse fill="none" stroke="black" cx="145" cy="-127" rx="18" ry="11"/>
<text text-anchor="middle" x="145" y="-124.8" font-family="sans-serif" font-size="9.00">Snd</text>
</g>
<!-- v0&#45;&gt;v1 -->
<g id="edge4" class="edge">
<title>v0&#45;&gt;v1</title>
<path fill="none" stroke="black" d="M150.75,-173.99C149.69,-165.49 148.15,-153.17 146.93,-143.42"/>
<polygon fill="black" stroke="black" points="146.29,-138.3 149.14,-142.99 146.6,-140.78 146.91,-143.27 146.91,-143.27 146.91,-143.27 146.6,-140.78 144.68,-143.54 146.29,-138.3 146.29,-138.3"/>
</g>
<!-- v1&#45;&gt;v2 -->
<g id="edge5" class="edge">
<title>v1&#45;&gt;v2</title>
<path fill="none" stroke="black" d="M137.55,-116.67C121.17,-96.15 82,-47.08 63.72,-24.17"/>
<polygon fill="black" stroke="black" points="60.55,-20.21 65.43,-22.72 62.11,-22.17 63.67,-24.12 63.67,-24.12 63.67,-24.12 62.11,-22.17 61.92,-25.52 60.55,-20.21 60.55,-20.21"/>
</g>
<!-- v3 -->
<g id="v3_Ready" class="node">
<title>v3</title>
<ellipse fill="none" stroke="black" cx="145" cy="-69" rx="25" ry="11"/>
<text text-anchor="middle" x="145" y="-66.8" font-family="sans-serif" font-size="9.00">Ready</text>
</g>
<!-- v1&#45;&gt;v3 -->
<g id="edge6" class="edge">
<title>v1&#45;&gt;v3</title>
<path fill="none" stroke="black" d="M145,-115.99C145,-107.49 145,-95.17 145,-85.42"/>
<polygon fill="black" stroke="black" points="145,-80.3 147.25,-85.3 145,-82.8 145,-85.3 145,-85.3 145,-85.3 145,-82.8 142.75,-85.3 145,-80.3 145,-80.3"/>
</g>
<!-- v2&#45;&gt;ov_a -->
<g id="edge14" class="edge">
<title>v2&#45;&gt;ov_a</title>
<path fill="none" stroke="green" d="M48.88,-20.83C38.5,-39.55 16,-84.9 16,-126 16,-186 16,-186 16,-186 16,-216.65 16,-253.11 16,-268.97"/>
</g>
<!-- v4 -->
<g id="v4_Fun" class="node">
<title>v4</title>
<ellipse fill="none" stroke="black" cx="145" cy="-11" rx="18" ry="11"/>
<text text-anchor="middle" x="145" y="-8.8" font-family="sans-serif" font-size="9.00">Fun</text>
</g>
<!-- v3&#45;&gt;v4 -->
<g id="edge7" class="edge">
<title>v3&#45;&gt;v4</title>
<path fill="none" stroke="black" d="M145,-57.99C145,-49.49 145,-37.17 145,-27.42"/>
<polygon fill="black" stroke="black" points="145,-22.3 147.25,-27.3 145,-24.8 145,-27.3 145,-27.3 145,-27.3 145,-24.8 142.75,-27.3 145,-22.3 145,-22.3"/>
</g>
<!-- v5&#45;&gt;ob -->
<g id="edge13" class="edge">
<title>v5&#45;&gt;ob</title>
<path fill="none" stroke="green" d="M357.72,-21.67C362.98,-41.21 374,-86.87 374,-126 374,-186 374,-186 374,-186 374,-216.65 374,-253.11 374,-268.97"/>
</g>
<!-- v6&#45;&gt;v7 -->
<g id="edge8" class="edge">
<title>v6&#45;&gt;v7</title>
<path fill="none" stroke="black" d="M277.74,-58.75C269.12,-49.1 255.59,-33.94 246.28,-23.52"/>
<polygon fill="black" stroke="black" points="242.82,-19.64 247.83,-21.87 244.49,-21.5 246.15,-23.37 246.15,-23.37 246.15,-23.37 244.49,-21.5 244.47,-24.87 242.82,-19.64 242.82,-19.64"/>
</g>
<!-- v7&#45;&gt;ov_b -->
<g id="edge15" class="edge">
<title>v7&#45;&gt;ov_b</title>
<path fill="none" stroke="green" d="M236,-22.06C236,-41.93 236,-87.6 236,-126 236,-186 236,-186 236,-186 236,-216.65 236,-253.11 236,-268.97"/>
</g>
</g>
</svg>
