<?xml version="1.0" encoding="UTF-8" standalone="no"?>
<?xml-stylesheet href="style.css" type="text/css"?>
<!DOCTYPE svg PUBLIC "-//W3C//DTD SVG 1.1//EN"
 "http://www.w3.org/Graphics/SVG/1.1/DTD/svg11.dtd">
<!-- Generated by graphviz version 2.43.0 (0)
 -->
<!-- Title: 3.svg Pages: 1 -->
<svg width="364pt" height="237pt"
 viewBox="0.00 0.00 363.50 237.00" xmlns="http://www.w3.org/2000/svg" xmlns:xlink="http://www.w3.org/1999/xlink">
<g id="graph0" class="graph" transform="scale(1 1) rotate(0) translate(4 233)">
<title>3.svg</title>
<polygon fill="white" stroke="transparent" points="-4,4 -4,-233 359.5,-233 359.5,4 -4,4"/>
<!-- r0 -->
<g id="node1" class="node">
<title>r0</title>
<polygon fill="none" stroke="black" stroke-dasharray="5,2" points="221.5,-229 198.5,-229 198.5,-211 221.5,-211 221.5,-229"/>
<text text-anchor="middle" x="210" y="-217.8" font-family="serif" font-size="9.00">0</text>
</g>
<!-- v0 -->
<g id="v0_A" class="node">
<title>v0</title>
<ellipse fill="none" stroke="black" cx="114" cy="-127" rx="11" ry="11"/>
<text text-anchor="middle" x="114" y="-124.8" font-family="sans-serif" font-size="9.00">A</text>
</g>
<!-- r0&#45;&gt;v0 -->
<g id="edge1" class="edge">
<title>r0&#45;&gt;v0</title>
<path fill="none" stroke="black" d="M201.48,-210.92C184.25,-194.59 145.22,-157.59 125.65,-139.04"/>
<polygon fill="black" stroke="black" points="121.56,-135.17 126.74,-136.97 123.37,-136.89 125.19,-138.61 125.19,-138.61 125.19,-138.61 123.37,-136.89 123.64,-140.24 121.56,-135.17 121.56,-135.17"/>
</g>
<!-- v3 -->
<g id="v3_A" class="node">
<title>v3</title>
<ellipse fill="none" stroke="black" cx="302" cy="-11" rx="11" ry="11"/>
<text text-anchor="middle" x="302" y="-8.8" font-family="sans-serif" font-size="9.00">A</text>
</g>
<!-- r0&#45;&gt;v3 -->
<g id="edge2" class="edge">
<title>r0&#45;&gt;v3</title>
<path fill="none" stroke="black" d="M213.61,-210.89C227.53,-179.55 277.9,-66.21 295.71,-26.15"/>
<polygon fill="black" stroke="black" points="297.91,-21.21 297.93,-26.69 296.89,-23.5 295.88,-25.78 295.88,-25.78 295.88,-25.78 296.89,-23.5 293.82,-24.87 297.91,-21.21 297.91,-21.21"/>
</g>
<!-- v4 -->
<g id="v4_Mail" class="node">
<title>v4</title>
<ellipse fill="none" stroke="black" cx="210" cy="-69" rx="21.5" ry="11"/>
<text text-anchor="middle" x="210" y="-66.8" font-family="sans-serif" font-size="9.00">Mail</text>
</g>
<!-- r0&#45;&gt;v4 -->
<g id="edge3" class="edge">
<title>r0&#45;&gt;v4</title>
<path fill="none" stroke="black" d="M210,-210.99C210,-187.22 210,-116.79 210,-85.4"/>
<polygon fill="black" stroke="black" points="210,-80.36 212.25,-85.36 210,-82.86 210,-85.36 210,-85.36 210,-85.36 210,-82.86 207.75,-85.36 210,-80.36 210,-80.36"/>
</g>
<!-- oa -->
<g id="node2" class="node">
<title>oa</title>
<text text-anchor="middle" x="114" y="-217.8" font-family="serif" font-size="9.00">a</text>
</g>
<!-- e0 -->
<g id="node6" class="node">
<title>e0</title>
</g>
<!-- oa&#45;&gt;e0 -->
<g id="edge8" class="edge">
<title>oa&#45;&gt;e0</title>
<path fill="none" stroke="green" d="M114,-210.93C114,-198.23 114,-175 114,-175"/>
</g>
<!-- ob -->
<g id="node3" class="node">
<title>ob</title>
<text text-anchor="middle" x="344" y="-217.8" font-family="serif" font-size="9.00">b</text>
</g>
<!-- ov_a -->
<g id="node4" class="node">
<title>ov_a</title>
<text text-anchor="middle" x="298" y="-217.8" font-family="serif" font-size="9.00">v_a</text>
</g>
<!-- ov_b -->
<g id="node5" class="node">
<title>ov_b</title>
<text text-anchor="middle" x="16" y="-217.8" font-family="serif" font-size="9.00">v_b</text>
</g>
<!-- e0&#45;&gt;v0 -->
<g id="edge9" class="edge">
<title>e0&#45;&gt;v0</title>
<path fill="none" stroke="green" d="M114,-174C114,-174 114,-151.76 114,-138.21"/>
</g>
<!-- v5 -->
<g id="v5_M" class="node">
<title>v5</title>
<ellipse fill="none" stroke="black" cx="54" cy="-11" rx="11" ry="11"/>
<text text-anchor="middle" x="54" y="-8.8" font-family="sans-serif" font-size="9.00">M</text>
</g>
<!-- e0&#45;&gt;v5 -->
<g id="edge10" class="edge">
<title>e0&#45;&gt;v5</title>
<path fill="none" stroke="green" d="M114,-174C114,-174 101.58,-154.66 94,-138 75.08,-96.43 61.4,-43.35 56.25,-21.78"/>
</g>
<!-- v6 -->
<g id="v6_M" class="node">
<title>v6</title>
<ellipse fill="none" stroke="black" cx="210" cy="-11" rx="11" ry="11"/>
<text text-anchor="middle" x="210" y="-8.8" font-family="sans-serif" font-size="9.00">M</text>
</g>
<!-- e0&#45;&gt;v6 -->
<g id="edge11" class="edge">
<title>e0&#45;&gt;v6</title>
<path fill="none" stroke="green" d="M114,-174C114,-174 175.13,-64.29 179,-58 187.28,-44.55 197.67,-29.46 204.07,-20.34"/>
</g>
<!-- v1 -->
<g id="v1_Ready" class="node">
<title>v1</title>
<ellipse fill="none" stroke="black" cx="107" cy="-69" rx="25" ry="11"/>
<text text-anchor="middle" x="107" y="-66.8" font-family="sans-serif" font-size="9.00">Ready</text>
</g>
<!-- v0&#45;&gt;v1 -->
<g id="edge4" class="edge">
<title>v0&#45;&gt;v1</title>
<path fill="none" stroke="black" d="M112.75,-115.99C111.69,-107.49 110.15,-95.17 108.93,-85.42"/>
<polygon fill="black" stroke="black" points="108.29,-80.3 111.14,-84.99 108.6,-82.78 108.91,-85.27 108.91,-85.27 108.91,-85.27 108.6,-82.78 106.68,-85.54 108.29,-80.3 108.29,-80.3"/>
</g>
<!-- v2 -->
<g id="v2_Fun" class="node">
<title>v2</title>
<ellipse fill="none" stroke="black" cx="107" cy="-11" rx="18" ry="11"/>
<text text-anchor="middle" x="107" y="-8.8" font-family="sans-serif" font-size="9.00">Fun</text>
</g>
<!-- v1&#45;&gt;v2 -->
<g id="edge5" class="edge">
<title>v1&#45;&gt;v2</title>
<path fill="none" stroke="black" d="M107,-57.99C107,-49.49 107,-37.17 107,-27.42"/>
<polygon fill="black" stroke="black" points="107,-22.3 109.25,-27.3 107,-24.8 107,-27.3 107,-27.3 107,-27.3 107,-24.8 104.75,-27.3 107,-22.3 107,-22.3"/>
</g>
<!-- v3&#45;&gt;ob -->
<g id="edge12" class="edge">
<title>v3&#45;&gt;ob</title>
<path fill="none" stroke="green" d="M304.2,-21.86C306.26,-31.17 309.4,-45.52 312,-58 324.19,-116.59 337.91,-187.4 342.45,-210.95"/>
</g>
<!-- v4&#45;&gt;v5 -->
<g id="edge6" class="edge">
<title>v4&#45;&gt;v5</title>
<path fill="none" stroke="black" d="M192.7,-62.05C167.74,-53.42 120.2,-36.84 80,-22 76.38,-20.66 72.49,-19.19 68.86,-17.79"/>
<polygon fill="black" stroke="black" points="64.1,-15.96 69.58,-15.66 66.43,-16.86 68.77,-17.76 68.77,-17.76 68.77,-17.76 66.43,-16.86 67.96,-19.86 64.1,-15.96 64.1,-15.96"/>
</g>
<!-- v4&#45;&gt;v6 -->
<g id="edge7" class="edge">
<title>v4&#45;&gt;v6</title>
<path fill="none" stroke="black" d="M210,-57.99C210,-49.49 210,-37.17 210,-27.42"/>
<polygon fill="black" stroke="black" points="210,-22.3 212.25,-27.3 210,-24.8 210,-27.3 210,-27.3 210,-27.3 210,-24.8 207.75,-27.3 210,-22.3 210,-22.3"/>
</g>
<!-- v5&#45;&gt;ov_b -->
<g id="edge14" class="edge">
<title>v5&#45;&gt;ov_b</title>
<path fill="none" stroke="green" d="M52.13,-22.18C45.54,-58.1 23.44,-178.44 17.49,-210.89"/>
</g>
<!-- v6&#45;&gt;ov_a -->
<g id="edge13" class="edge">
<title>v6&#45;&gt;ov_a</title>
<path fill="none" stroke="green" d="M216.14,-20.13C222.68,-29.06 233.03,-44 240,-58 267.8,-113.85 289.02,-186.41 295.75,-210.68"/>
</g>
</g>
</svg>
