<?xml version="1.0" encoding="UTF-8" standalone="no"?>
<?xml-stylesheet href="style.css" type="text/css"?>
<!DOCTYPE svg PUBLIC "-//W3C//DTD SVG 1.1//EN"
 "http://www.w3.org/Graphics/SVG/1.1/DTD/svg11.dtd">
<!-- Generated by graphviz version 2.43.0 (0)
 -->
<!-- Title: 5.svg Pages: 1 -->
<svg width="302pt" height="179pt"
 viewBox="0.00 0.00 301.50 179.00" xmlns="http://www.w3.org/2000/svg" xmlns:xlink="http://www.w3.org/1999/xlink">
<g id="graph0" class="graph" transform="scale(1 1) rotate(0) translate(4 175)">
<title>5.svg</title>
<polygon fill="white" stroke="transparent" points="-4,4 -4,-175 297.5,-175 297.5,4 -4,4"/>
<!-- r0 -->
<g id="node1" class="node">
<title>r0</title>
<polygon fill="none" stroke="black" stroke-dasharray="5,2" points="100,-171 77,-171 77,-153 100,-153 100,-171"/>
<text text-anchor="middle" x="88.5" y="-159.8" font-family="serif" font-size="9.00">0</text>
</g>
<!-- v0 -->
<g id="v0_A" class="node">
<title>v0</title>
<ellipse fill="none" stroke="black" cx="88.5" cy="-69" rx="11" ry="11"/>
<text text-anchor="middle" x="88.5" y="-66.8" font-family="sans-serif" font-size="9.00">A</text>
</g>
<!-- r0&#45;&gt;v0 -->
<g id="edge1" class="edge">
<title>r0&#45;&gt;v0</title>
<path fill="none" stroke="black" d="M88.5,-152.92C88.5,-137.74 88.5,-104.7 88.5,-85.22"/>
<polygon fill="black" stroke="black" points="88.5,-80.11 90.75,-85.11 88.5,-82.61 88.5,-85.11 88.5,-85.11 88.5,-85.11 88.5,-82.61 86.25,-85.11 88.5,-80.11 88.5,-80.11"/>
</g>
<!-- v2 -->
<g id="v2_A" class="node">
<title>v2</title>
<ellipse fill="none" stroke="black" cx="26.5" cy="-11" rx="11" ry="11"/>
<text text-anchor="middle" x="26.5" y="-8.8" font-family="sans-serif" font-size="9.00">A</text>
</g>
<!-- r0&#45;&gt;v2 -->
<g id="edge2" class="edge">
<title>r0&#45;&gt;v2</title>
<path fill="none" stroke="black" d="M85.17,-152.99C75.18,-128.99 45.4,-57.43 32.54,-26.5"/>
<polygon fill="black" stroke="black" points="30.48,-21.56 34.48,-25.31 31.44,-23.87 32.4,-26.18 32.4,-26.18 32.4,-26.18 31.44,-23.87 30.32,-27.04 30.48,-21.56 30.48,-21.56"/>
</g>
<!-- v3 -->
<g id="v3_Mail" class="node">
<title>v3</title>
<ellipse fill="none" stroke="black" cx="139.5" cy="-69" rx="21.5" ry="11"/>
<text text-anchor="middle" x="139.5" y="-66.8" font-family="sans-serif" font-size="9.00">Mail</text>
</g>
<!-- r0&#45;&gt;v3 -->
<g id="edge3" class="edge">
<title>r0&#45;&gt;v3</title>
<path fill="none" stroke="black" d="M93.03,-152.92C101.66,-137.53 120.57,-103.78 131.42,-84.42"/>
<polygon fill="black" stroke="black" points="133.99,-79.83 133.51,-85.29 132.77,-82.01 131.55,-84.19 131.55,-84.19 131.55,-84.19 132.77,-82.01 129.59,-83.09 133.99,-79.83 133.99,-79.83"/>
</g>
<!-- oa -->
<g id="node2" class="node">
<title>oa</title>
<text text-anchor="middle" x="171.5" y="-159.8" font-family="serif" font-size="9.00">a</text>
</g>
<!-- e0 -->
<g id="node6" class="node">
<title>e0</title>
</g>
<!-- oa&#45;&gt;e0 -->
<g id="edge6" class="edge">
<title>oa&#45;&gt;e0</title>
<path fill="none" stroke="green" d="M171.5,-152.93C171.5,-140.23 171.5,-117 171.5,-117"/>
</g>
<!-- ob -->
<g id="node3" class="node">
<title>ob</title>
<text text-anchor="middle" x="11.5" y="-159.8" font-family="serif" font-size="9.00">b</text>
</g>
<!-- ov_a -->
<g id="node4" class="node">
<title>ov_a</title>
<text text-anchor="middle" x="277.5" y="-159.8" font-family="serif" font-size="9.00">v_a</text>
</g>
<!-- ov_b -->
<g id="node5" class="node">
<title>ov_b</title>
<text text-anchor="middle" x="227.5" y="-159.8" font-family="serif" font-size="9.00">v_b</text>
</g>
<!-- e0&#45;&gt;v0 -->
<g id="edge7" class="edge">
<title>e0&#45;&gt;v0</title>
<path fill="none" stroke="green" d="M171.5,-116C171.5,-116 119.31,-87.08 97.7,-75.1"/>
</g>
<!-- v4 -->
<g id="v4_M" class="node">
<title>v4</title>
<ellipse fill="none" stroke="black" cx="189.5" cy="-11" rx="11" ry="11"/>
<text text-anchor="middle" x="189.5" y="-8.8" font-family="sans-serif" font-size="9.00">M</text>
</g>
<!-- e0&#45;&gt;v4 -->
<g id="edge8" class="edge">
<title>e0&#45;&gt;v4</title>
<path fill="none" stroke="green" d="M171.5,-116C171.5,-116 183.27,-48 187.77,-21.97"/>
</g>
<!-- v1 -->
<g id="v1_Fun" class="node">
<title>v1</title>
<ellipse fill="none" stroke="black" cx="88.5" cy="-11" rx="18" ry="11"/>
<text text-anchor="middle" x="88.5" y="-8.8" font-family="sans-serif" font-size="9.00">Fun</text>
</g>
<!-- v0&#45;&gt;v1 -->
<g id="edge4" class="edge">
<title>v0&#45;&gt;v1</title>
<path fill="none" stroke="black" d="M88.5,-57.99C88.5,-49.49 88.5,-37.17 88.5,-27.42"/>
<polygon fill="black" stroke="black" points="88.5,-22.3 90.75,-27.3 88.5,-24.8 88.5,-27.3 88.5,-27.3 88.5,-27.3 88.5,-24.8 86.25,-27.3 88.5,-22.3 88.5,-22.3"/>
</g>
<!-- v2&#45;&gt;ob -->
<g id="edge9" class="edge">
<title>v2&#45;&gt;ob</title>
<path fill="none" stroke="green" d="M25.5,-21.96C22.7,-49.74 14.85,-127.72 12.31,-152.99"/>
</g>
<!-- v3&#45;&gt;v4 -->
<g id="edge5" class="edge">
<title>v3&#45;&gt;v4</title>
<path fill="none" stroke="black" d="M147.76,-58.75C156.38,-49.1 169.91,-33.94 179.22,-23.52"/>
<polygon fill="black" stroke="black" points="182.68,-19.64 181.03,-24.87 181.01,-21.5 179.35,-23.37 179.35,-23.37 179.35,-23.37 181.01,-21.5 177.67,-21.87 182.68,-19.64 182.68,-19.64"/>
</g>
<!-- v4&#45;&gt;ov_b -->
<g id="edge10" class="edge">
<title>v4&#45;&gt;ov_b</title>
<path fill="none" stroke="green" d="M192.04,-21.96C199.12,-49.74 219.01,-127.72 225.46,-152.99"/>
</g>
</g>
</svg>
