<?xml version="1.0" encoding="UTF-8" standalone="no"?>
<?xml-stylesheet href="style.css" type="text/css"?>
<!DOCTYPE svg PUBLIC "-//W3C//DTD SVG 1.1//EN"
 "http://www.w3.org/Graphics/SVG/1.1/DTD/svg11.dtd">
<!-- Generated by graphviz version 2.43.0 (0)
 -->
<!-- Title: 8.svg Pages: 1 -->
<svg width="281pt" height="142pt"
 viewBox="0.00 0.00 281.00 142.00" xmlns="http://www.w3.org/2000/svg" xmlns:xlink="http://www.w3.org/1999/xlink">
<g id="graph0" class="graph" transform="scale(1 1) rotate(0) translate(4 138)">
<title>8.svg</title>
<polygon fill="white" stroke="transparent" points="-4,4 -4,-138 277,-138 277,4 -4,4"/>
<!-- r0 -->
<g id="node1" class="node">
<title>r0</title>
<polygon fill="none" stroke="black" stroke-dasharray="5,2" points="152.5,-134 129.5,-134 129.5,-116 152.5,-116 152.5,-134"/>
<text text-anchor="middle" x="141" y="-122.8" font-family="serif" font-size="9.00">0</text>
</g>
<!-- v0 -->
<g id="v0_A" class="node">
<title>v0</title>
<ellipse fill="none" stroke="black" cx="127" cy="-11" rx="11" ry="11"/>
<text text-anchor="middle" x="127" y="-8.8" font-family="sans-serif" font-size="9.00">A</text>
</g>
<!-- r0&#45;&gt;v0 -->
<g id="edge1" class="edge">
<title>r0&#45;&gt;v0</title>
<path fill="none" stroke="black" d="M139.99,-115.95C137.67,-97.39 131.92,-51.36 128.91,-27.27"/>
<polygon fill="black" stroke="black" points="128.27,-22.2 131.13,-26.88 128.58,-24.68 128.89,-27.16 128.89,-27.16 128.89,-27.16 128.58,-24.68 126.66,-27.44 128.27,-22.2 128.27,-22.2"/>
</g>
<!-- v1 -->
<g id="v1_A" class="node">
<title>v1</title>
<ellipse fill="none" stroke="black" cx="180" cy="-11" rx="11" ry="11"/>
<text text-anchor="middle" x="180" y="-8.8" font-family="sans-serif" font-size="9.00">A</text>
</g>
<!-- r0&#45;&gt;v1 -->
<g id="edge2" class="edge">
<title>r0&#45;&gt;v1</title>
<path fill="none" stroke="black" d="M143.8,-115.95C150.33,-97.2 166.62,-50.44 174.93,-26.55"/>
<polygon fill="black" stroke="black" points="176.68,-21.54 177.16,-27 175.86,-23.9 175.03,-26.26 175.03,-26.26 175.03,-26.26 175.86,-23.9 172.91,-25.52 176.68,-21.54 176.68,-21.54"/>
</g>
<!-- v2 -->
<g id="v2_Mail" class="node">
<title>v2</title>
<ellipse fill="none" stroke="black" cx="66" cy="-69" rx="21.5" ry="11"/>
<text text-anchor="middle" x="66" y="-66.8" font-family="sans-serif" font-size="9.00">Mail</text>
</g>
<!-- r0&#45;&gt;v2 -->
<g id="edge3" class="edge">
<title>r0&#45;&gt;v2</title>
<path fill="none" stroke="black" d="M129.61,-115.8C116.98,-106.71 96.52,-91.97 82.22,-81.68"/>
<polygon fill="black" stroke="black" points="78,-78.64 83.37,-79.73 80.02,-80.1 82.05,-81.56 82.05,-81.56 82.05,-81.56 80.02,-80.1 80.74,-83.38 78,-78.64 78,-78.64"/>
</g>
<!-- oa -->
<g id="node2" class="node">
<title>oa</title>
<text text-anchor="middle" x="100" y="-122.8" font-family="serif" font-size="9.00">a</text>
</g>
<!-- e0 -->
<g id="node6" class="node">
<title>e0</title>
</g>
<!-- oa&#45;&gt;e0 -->
<g id="edge5" class="edge">
<title>oa&#45;&gt;e0</title>
<path fill="none" stroke="green" d="M100.94,-115.56C102.62,-100.38 106,-70 106,-70"/>
</g>
<!-- ob -->
<g id="node3" class="node">
<title>ob</title>
<text text-anchor="middle" x="211" y="-122.8" font-family="serif" font-size="9.00">b</text>
</g>
<!-- ov_a -->
<g id="node4" class="node">
<title>ov_a</title>
<text text-anchor="middle" x="257" y="-122.8" font-family="serif" font-size="9.00">v_a</text>
</g>
<!-- ov_b -->
<g id="node5" class="node">
<title>ov_b</title>
<text text-anchor="middle" x="16" y="-122.8" font-family="serif" font-size="9.00">v_b</text>
</g>
<!-- e0&#45;&gt;v0 -->
<g id="edge6" class="edge">
<title>e0&#45;&gt;v0</title>
<path fill="none" stroke="green" d="M106,-68C106,-68 117.45,-37.48 123.44,-21.5"/>
</g>
<!-- v3 -->
<g id="v3_M" class="node">
<title>v3</title>
<ellipse fill="none" stroke="black" cx="66" cy="-11" rx="11" ry="11"/>
<text text-anchor="middle" x="66" y="-8.8" font-family="sans-serif" font-size="9.00">M</text>
</g>
<!-- e0&#45;&gt;v3 -->
<g id="edge7" class="edge">
<title>e0&#45;&gt;v3</title>
<path fill="none" stroke="green" d="M106,-68C106,-68 83.5,-36.5 72.25,-20.75"/>
</g>
<!-- v1&#45;&gt;ob -->
<g id="edge8" class="edge">
<title>v1&#45;&gt;ob</title>
<path fill="none" stroke="green" d="M182.73,-21.87C188.78,-43.72 203.22,-95.88 208.77,-115.95"/>
</g>
<!-- v2&#45;&gt;v3 -->
<g id="edge4" class="edge">
<title>v2&#45;&gt;v3</title>
<path fill="none" stroke="black" d="M66,-57.99C66,-49.49 66,-37.17 66,-27.42"/>
<polygon fill="black" stroke="black" points="66,-22.3 68.25,-27.3 66,-24.8 66,-27.3 66,-27.3 66,-27.3 66,-24.8 63.75,-27.3 66,-22.3 66,-22.3"/>
</g>
<!-- v3&#45;&gt;ov_b -->
<g id="edge9" class="edge">
<title>v3&#45;&gt;ov_b</title>
<path fill="none" stroke="green" d="M59.45,-20.01C52.52,-28.83 41.68,-43.69 35,-58 25.72,-77.88 19.97,-103.28 17.46,-115.99"/>
</g>
</g>
</svg>
