<?xml version="1.0" encoding="UTF-8" standalone="no"?>
<?xml-stylesheet href="style.css" type="text/css"?>
<!DOCTYPE svg PUBLIC "-//W3C//DTD SVG 1.1//EN"
 "http://www.w3.org/Graphics/SVG/1.1/DTD/svg11.dtd">
<!-- Generated by graphviz version 2.43.0 (0)
 -->
<!-- Title: 9.svg Pages: 1 -->
<svg width="289pt" height="142pt"
 viewBox="0.00 0.00 288.50 142.00" xmlns="http://www.w3.org/2000/svg" xmlns:xlink="http://www.w3.org/1999/xlink">
<g id="graph0" class="graph" transform="scale(1 1) rotate(0) translate(4 138)">
<title>9.svg</title>
<polygon fill="white" stroke="transparent" points="-4,4 -4,-138 284.5,-138 284.5,4 -4,4"/>
<!-- r0 -->
<g id="node1" class="node">
<title>r0</title>
<polygon fill="none" stroke="black" stroke-dasharray="5,2" points="99,-134 76,-134 76,-116 99,-116 99,-134"/>
<text text-anchor="middle" x="87.5" y="-122.8" font-family="serif" font-size="9.00">0</text>
</g>
<!-- v0 -->
<g id="v0_A" class="node">
<title>v0</title>
<ellipse fill="none" stroke="black" cx="39.5" cy="-11" rx="11" ry="11"/>
<text text-anchor="middle" x="39.5" y="-8.8" font-family="sans-serif" font-size="9.00">A</text>
</g>
<!-- r0&#45;&gt;v0 -->
<g id="edge1" class="edge">
<title>r0&#45;&gt;v0</title>
<path fill="none" stroke="black" d="M84.05,-115.95C75.98,-97.12 55.8,-50.04 45.61,-26.25"/>
<polygon fill="black" stroke="black" points="43.59,-21.54 47.63,-25.25 44.57,-23.84 45.56,-26.14 45.56,-26.14 45.56,-26.14 44.57,-23.84 43.49,-27.02 43.59,-21.54 43.59,-21.54"/>
</g>
<!-- v1 -->
<g id="v1_Mail" class="node">
<title>v1</title>
<ellipse fill="none" stroke="black" cx="137.5" cy="-69" rx="21.5" ry="11"/>
<text text-anchor="middle" x="137.5" y="-66.8" font-family="sans-serif" font-size="9.00">Mail</text>
</g>
<!-- r0&#45;&gt;v1 -->
<g id="edge2" class="edge">
<title>r0&#45;&gt;v1</title>
<path fill="none" stroke="black" d="M95.31,-115.56C103.36,-106.87 116.02,-93.2 125.37,-83.1"/>
<polygon fill="black" stroke="black" points="128.9,-79.28 127.16,-84.48 127.21,-81.12 125.51,-82.95 125.51,-82.95 125.51,-82.95 127.21,-81.12 123.86,-81.42 128.9,-79.28 128.9,-79.28"/>
</g>
<!-- v3 -->
<g id="v3_A" class="node">
<title>v3</title>
<ellipse fill="none" stroke="black" cx="97.5" cy="-11" rx="11" ry="11"/>
<text text-anchor="middle" x="97.5" y="-8.8" font-family="sans-serif" font-size="9.00">A</text>
</g>
<!-- r0&#45;&gt;v3 -->
<g id="edge3" class="edge">
<title>r0&#45;&gt;v3</title>
<path fill="none" stroke="black" d="M88.22,-115.95C89.88,-97.39 93.99,-51.36 96.14,-27.27"/>
<polygon fill="black" stroke="black" points="96.59,-22.2 98.39,-27.38 96.37,-24.69 96.14,-27.18 96.14,-27.18 96.14,-27.18 96.37,-24.69 93.9,-26.98 96.59,-22.2 96.59,-22.2"/>
</g>
<!-- oa -->
<g id="node2" class="node">
<title>oa</title>
<text text-anchor="middle" x="169.5" y="-122.8" font-family="serif" font-size="9.00">a</text>
</g>
<!-- e0 -->
<g id="node6" class="node">
<title>e0</title>
</g>
<!-- oa&#45;&gt;e0 -->
<g id="edge5" class="edge">
<title>oa&#45;&gt;e0</title>
<path fill="none" stroke="green" d="M170.75,-115.56C173,-100.38 177.5,-70 177.5,-70"/>
</g>
<!-- ob -->
<g id="node3" class="node">
<title>ob</title>
<text text-anchor="middle" x="11.5" y="-122.8" font-family="serif" font-size="9.00">b</text>
</g>
<!-- ov_a -->
<g id="node4" class="node">
<title>ov_a</title>
<text text-anchor="middle" x="214.5" y="-122.8" font-family="serif" font-size="9.00">v_a</text>
</g>
<!-- ov_b -->
<g id="node5" class="node">
<title>ov_b</title>
<text text-anchor="middle" x="264.5" y="-122.8" font-family="serif" font-size="9.00">v_b</text>
</g>
<!-- v2 -->
<g id="v2_M" class="node">
<title>v2</title>
<ellipse fill="none" stroke="black" cx="177.5" cy="-11" rx="11" ry="11"/>
<text text-anchor="middle" x="177.5" y="-8.8" font-family="sans-serif" font-size="9.00">M</text>
</g>
<!-- e0&#45;&gt;v2 -->
<g id="edge6" class="edge">
<title>e0&#45;&gt;v2</title>
<path fill="none" stroke="green" d="M177.5,-68C177.5,-68 177.5,-38.12 177.5,-22.01"/>
</g>
<!-- e0&#45;&gt;v3 -->
<g id="edge7" class="edge">
<title>e0&#45;&gt;v3</title>
<path fill="none" stroke="green" d="M177.5,-68C177.5,-68 173.05,-61.88 168.5,-58 148.17,-40.65 120.86,-24.72 106.77,-16.96"/>
</g>
<!-- v0&#45;&gt;ob -->
<g id="edge8" class="edge">
<title>v0&#45;&gt;ob</title>
<path fill="none" stroke="green" d="M37.03,-21.87C31.57,-43.72 18.53,-95.88 13.51,-115.95"/>
</g>
<!-- v1&#45;&gt;v2 -->
<g id="edge4" class="edge">
<title>v1&#45;&gt;v2</title>
<path fill="none" stroke="black" d="M144.29,-58.5C150.92,-49.22 161.06,-35.02 168.39,-24.76"/>
<polygon fill="black" stroke="black" points="171.34,-20.63 170.26,-26 169.89,-22.66 168.43,-24.69 168.43,-24.69 168.43,-24.69 169.89,-22.66 166.6,-23.39 171.34,-20.63 171.34,-20.63"/>
</g>
<!-- v2&#45;&gt;ov_a -->
<g id="edge9" class="edge">
<title>v2&#45;&gt;ov_a</title>
<path fill="none" stroke="green" d="M180.65,-21.54C187.81,-43.2 205.18,-95.78 211.84,-115.95"/>
</g>
</g>
</svg>
